<?xml version="1.0" encoding="UTF-8" standalone="no"?>
<!-- Created with Inkscape (http://www.inkscape.org/) -->

<svg
   xmlns:dc="http://purl.org/dc/elements/1.1/"
   xmlns:cc="http://creativecommons.org/ns#"
   xmlns:rdf="http://www.w3.org/1999/02/22-rdf-syntax-ns#"
   xmlns:svg="http://www.w3.org/2000/svg"
   xmlns="http://www.w3.org/2000/svg"
   xmlns:sodipodi="http://sodipodi.sourceforge.net/DTD/sodipodi-0.dtd"
   xmlns:inkscape="http://www.inkscape.org/namespaces/inkscape"
   width="85.019447mm"
   height="57.855556mm"
   viewBox="0 0 85.019447 57.855556"
   version="1.1"
   id="svg8"
   inkscape:version="0.92.2 2405546, 2018-03-11"
   sodipodi:docname="Enemy.svg"
   inkscape:export-filename="/home/olym/Pictures/Created/RightEnemy.png"
   inkscape:export-xdpi="96"
   inkscape:export-ydpi="96">
  <defs
     id="defs2" />
  <sodipodi:namedview
     id="base"
     pagecolor="#ffffff"
     bordercolor="#666666"
     borderopacity="1.0"
     inkscape:pageopacity="0.0"
     inkscape:pageshadow="2"
     inkscape:zoom="2.8"
     inkscape:cx="149.98852"
     inkscape:cy="125.58606"
     inkscape:document-units="mm"
     inkscape:current-layer="layer2"
     showgrid="false"
     fit-margin-top="0"
     fit-margin-left="0"
     fit-margin-right="0"
     fit-margin-bottom="0"
     inkscape:window-width="1920"
     inkscape:window-height="1051"
     inkscape:window-x="0"
     inkscape:window-y="0"
     inkscape:window-maximized="1" />
  <metadata
     id="metadata5">
    <rdf:RDF>
      <cc:Work
         rdf:about="">
        <dc:format>image/svg+xml</dc:format>
        <dc:type
           rdf:resource="http://purl.org/dc/dcmitype/StillImage" />
        <dc:title />
      </cc:Work>
    </rdf:RDF>
  </metadata>
  <g
     inkscape:groupmode="layer"
     id="layer2"
     inkscape:label="Main">
    <path
       style="fill:#ff0000;fill-opacity:1;stroke:#000000;stroke-width:0.26458332px;stroke-linecap:butt;stroke-linejoin:miter;stroke-opacity:1"
       d="m 77.316506,26.38905 c 0.94494,0.18899 2.64584,-1.70089 3.87426,-2.45685 1.22842,-0.75596 3.40178,-0.0945 3.40178,-0.0945 l -3.77976,-4.7247 3.87426,-4.34673 c 0,0 -11.81176,0.37798 -14.3631,-0.28348 -2.55134,-0.66146 -1.79538,-2.83482 -10.48884,-8.31548 -8.69345,-5.48065 -28.63169,3.11831 -28.63169,3.11831 0,0 3.1183,1.13392 13.22916,0.56696 10.11087,-0.56696 10.29985,4.34673 10.29985,4.34673 l -43.56175,2.55134 20.88318,1.60639 -17.67038,3.77977 h 7.18154 l -19.0877904,4.44122 6.61458,0.18898 -8.69344998,1.682 8.69343998,1.68199 -6.61458,0.18898 19.0877904,4.44122 h -7.18154 l 17.67038,3.77977 -20.88318,1.60639 43.56176,2.55134 c 0,0 -0.18898,4.91369 -10.29985,4.34673 -10.11087,-0.56696 -13.22917,0.56696 -13.22917,0.56696 0,0 19.93825,8.59896 28.6317,3.11831 8.69346,-5.48066 7.9375,-7.65402 10.48884,-8.31548 2.55134,-0.66146 14.3631,-0.28348 14.3631,-0.28348 l -3.87426,-4.34673 3.77976,-4.7247 c 0,0 -2.17336,0.66146 -3.40178,-0.0945 -1.22842,-0.75596 -2.92932,-2.64584 -3.87426,-2.45685 -0.94494,0.18899 -0.47247,-2.05996 -0.47247,-2.05996 0,0 -0.47247,-2.24894 0.47247,-2.05995 z"
       id="path816"
       inkscape:connector-curvature="0"
       sodipodi:nodetypes="sscccsscscccccccccccccccscsscccsscs" />
    <path
       style="fill:none;stroke:#000000;stroke-width:0.26458332px;stroke-linecap:butt;stroke-linejoin:miter;stroke-opacity:1"
       d="m 21.565016,22.13681 19.0878,-3.49628 -8.59896,-0.28349 22.67857,-4.15773"
       id="path818"
       inkscape:connector-curvature="0" />
    <path
       style="fill:none;stroke:#000000;stroke-width:0.26458332px;stroke-linecap:butt;stroke-linejoin:miter;stroke-opacity:1"
       d="M 9.0918056,26.76701 21.565016,22.13681"
       id="path820"
       inkscape:connector-curvature="0" />
    <path
       style="fill:none;stroke:#000000;stroke-width:0.26458332px;stroke-linecap:butt;stroke-linejoin:miter;stroke-opacity:1"
       d="m 40.652816,18.64053 14.07961,-4.44122"
       id="path822"
       inkscape:connector-curvature="0" />
    <path
       style="fill:none;stroke:#000000;stroke-width:0.26458332px;stroke-linecap:butt;stroke-linejoin:miter;stroke-opacity:1"
       d="m 82.702668,17.223116 2.173363,2.078869 -2.173363,1.984375"
       id="path829"
       inkscape:connector-curvature="0" />
    <path
       style="fill:#ffff00;fill-opacity:1;stroke:#000000;stroke-width:0.26458332px;stroke-linecap:butt;stroke-linejoin:miter;stroke-opacity:1"
       d="M 74.576181,28.27892 73.820228,16.84514 c 0,0 -3.685268,0.09449 -5.669643,-0.944941 -1.984375,-1.039434 -2.078869,-3.118303 -8.40997,-7.6540177 -6.331101,-4.5357142 -22.206101,0.1889882 -22.206101,0.1889882 0,0 12.567708,-0.8504464 15.780506,1.4174107 3.212797,2.2678568 3.685268,4.6302088 4.630208,5.3861608 0.944941,0.755952 3.590774,2.740327 4.630208,3.307292 1.039435,0.566964 1.133929,2.456845 0.283483,2.551339 -0.850447,0.09449 -2.740328,7.351636 -2.740328,7.351636 0,0 1.889881,7.257147 2.740328,7.351637 0.850446,0.09449 0.755952,1.984375 -0.283483,2.551338 -1.039434,0.566966 -3.685267,2.551341 -4.630207,3.307293 -0.944941,0.755952 -1.417413,3.118304 -4.630208,5.38616 -3.212799,2.267857 -15.780511,1.417411 -15.780511,1.417411 0,0 15.875004,4.724702 22.206105,0.188988 6.331101,-4.535715 6.425595,-6.614584 8.40997,-7.654017 1.984375,-1.039432 5.669643,-0.944942 5.669643,-0.944942 l 0.755953,-11.43378 z"
       id="path831"
       inkscape:connector-curvature="0"
       sodipodi:nodetypes="cccscsscccccsscssccc" />
    <path
       style="fill:none;stroke:#000000;stroke-width:0.26458332px;stroke-linecap:butt;stroke-linejoin:miter;stroke-opacity:1"
       d="m 55.960854,17.79008 -8.504465,1.795387 8.504465,1.322917 c 0,0 2.078868,-1.322917 0,-3.118304 z"
       id="path833"
       inkscape:connector-curvature="0" />
    <path
       style="fill:none;stroke:#000000;stroke-width:0.26458332px;stroke-linecap:butt;stroke-linejoin:miter;stroke-opacity:1"
       d="m 21.56501,34.761204 19.087804,3.49628 -8.598964,0.28349 22.678573,4.15773"
       id="path818-6"
       inkscape:connector-curvature="0" />
    <path
       style="fill:none;stroke:#000000;stroke-width:0.26458332px;stroke-linecap:butt;stroke-linejoin:miter;stroke-opacity:1"
       d="m 9.0917996,30.131004 12.4732104,4.6302"
       id="path820-7"
       inkscape:connector-curvature="0" />
    <path
       style="fill:none;stroke:#000000;stroke-width:0.26458332px;stroke-linecap:butt;stroke-linejoin:miter;stroke-opacity:1"
       d="m 40.652814,38.257484 14.079609,4.44122"
       id="path822-5"
       inkscape:connector-curvature="0" />
    <path
       style="fill:none;stroke:#000000;stroke-width:0.26458332px;stroke-linecap:butt;stroke-linejoin:miter;stroke-opacity:1"
       d="m 82.702669,39.674901 2.173363,-2.078869 -2.173363,-1.984375"
       id="path829-3"
       inkscape:connector-curvature="0" />
    <path
       style="fill:none;stroke:#000000;stroke-width:0.26458332px;stroke-linecap:butt;stroke-linejoin:miter;stroke-opacity:1"
       d="m 55.960854,39.107936 -8.504465,-1.795386 8.504465,-1.322918 c 0,0 2.078868,1.322918 0,3.118304 z"
       id="path833-6"
       inkscape:connector-curvature="0" />
    <path
       style="fill:none;stroke:#000000;stroke-width:0.26458332px;stroke-linecap:butt;stroke-linejoin:miter;stroke-opacity:1"
       d="M 8.8209756,29.346214 H 38.287441 c 0,0 -3.040192,2.037931 -4.409948,2.07134 -1.369756,0.03341 -1.804069,0.133635 -1.804069,0.133635 0,0 1.336347,0.868626 -0.03341,1.603617 h 20.646571 c 0,0 2.238382,-2.839739 2.313146,-4.721466 -0.125688,-1.881727 -2.36407,-4.721466 -2.36407,-4.721466 H 31.98909 c 1.369757,0.734991 0.03341,1.603617 0.03341,1.603617 0,0 0.434313,0.100225 1.804069,0.133635 1.369756,0.03341 4.409948,2.07134 4.409948,2.07134 H 8.7700516 c 2.8353474,0.608583 3.3541864,1.217165 0.05092,1.825748 z"
       id="path868-2"
       inkscape:connector-curvature="0"
       sodipodi:nodetypes="ccscccccccsccc" />
    <path
       style="fill:#ffff00;fill-opacity:1;stroke:none;stroke-width:1.7860713;stroke-miterlimit:4;stroke-dasharray:none"
       d="m 51.53212,41.875067 c -0.05197,-0.02455 -2.527662,-0.811462 -5.501537,-1.748708 l -5.407046,-1.704086 -3.510383,0.118835 -3.510386,0.118837 8.72844,1.600523 c 8.293786,1.520822 9.421326,1.718686 9.200912,1.614599 z"
       id="path885"
       inkscape:connector-curvature="0" />
    <path
       style="fill:#ffff00;fill-opacity:1;stroke:none;stroke-width:1.7860713;stroke-miterlimit:4;stroke-dasharray:none"
       d="m 46.074295,16.767379 c 2.974943,-0.944233 5.391968,-1.73381 5.371161,-1.754615 -0.04878,-0.04878 -17.144465,3.073859 -17.394227,3.17717 -0.11031,0.04563 0.869437,0.104352 2.362351,0.141593 1.402958,0.035 2.933533,0.08366 3.40128,0.108136 l 0.850444,0.0445 z"
       id="path887"
       inkscape:connector-curvature="0" />
    <path
       style="fill:#ffff00;fill-opacity:1;stroke:none;stroke-width:1.7860713;stroke-miterlimit:4;stroke-dasharray:none"
       d="m 13.704681,24.878754 c 2.530211,-0.941865 4.582213,-1.730654 4.560004,-1.752864 -0.02222,-0.02221 -3.227112,0.699914 -7.122004,1.604722 -5.6327594,1.308526 -7.0103707,1.6571 -6.7333679,1.703729 0.1915399,0.03224 1.326269,0.08073 2.5216168,0.107759 l 2.1733642,0.04914 z"
       id="path889"
       inkscape:connector-curvature="0" />
    <path
       style="fill:#008000;fill-opacity:1;stroke:none;stroke-width:1.7860713;stroke-miterlimit:4;stroke-dasharray:none"
       d="m 18.30959,33.754615 c -0.02167,-0.02138 -2.112126,-0.807048 -4.645493,-1.745916 l -4.6061209,-1.707036 -2.4138943,0.06025 c -1.3276421,0.03314 -2.4307111,0.08746 -2.4512666,0.120717 -0.032115,0.05196 13.8319748,3.315784 14.0695278,3.312183 0.04764,-7.93e-4 0.0689,-0.01881 0.04725,-0.0402 z"
       id="path891"
       inkscape:connector-curvature="0" />
    <path
       style="fill:#008000;fill-opacity:1;stroke:none;stroke-width:1.7860713;stroke-miterlimit:4;stroke-dasharray:none"
       d="m 13.351653,24.975495 c 2.232104,-0.84061 3.99361,-1.540853 3.91446,-1.556096 -0.157911,-0.03041 -7.166578,1.564385 -10.618663,2.416237 l -2.1733642,0.536309 0.8031982,0.06338 c 0.4417616,0.03486 1.5260797,0.06454 2.4096001,0.06596 l 1.6063992,0.0026 z"
       id="path893"
       inkscape:connector-curvature="0" />
    <path
       style="fill:#008000;fill-opacity:1;stroke:none;stroke-width:1.7860713;stroke-miterlimit:4;stroke-dasharray:none"
       d="m 42.838669,17.767111 c 1.19535,-0.383832 3.464041,-1.111276 5.041537,-1.616541 1.577494,-0.505265 2.827655,-0.93217 2.77813,-0.948678 -0.08347,-0.02782 -12.640241,2.239241 -15.190202,2.742516 l -1.13393,0.223799 0.755954,0.06182 c 0.415771,0.034 1.776487,0.08703 3.023809,0.117844 1.24732,0.03081 2.331641,0.06977 2.409597,0.08657 0.07796,0.0168 1.119754,-0.283499 2.315105,-0.66733 z"
       id="path895"
       inkscape:connector-curvature="0" />
    <path
       style="fill:#008000;fill-opacity:1;stroke:none;stroke-width:1.7860713;stroke-miterlimit:4;stroke-dasharray:none"
       d="m 50.350946,41.541956 c -0.285845,-0.0936 -2.603312,-0.827304 -5.149927,-1.630466 l -4.630208,-1.460291 -3.08996,0.10753 c -1.69948,0.05914 -3.114659,0.132225 -3.144845,0.162409 -0.03018,0.03018 0.105891,0.07795 0.302389,0.106148 0.196496,0.0282 3.861898,0.693066 8.145336,1.477489 4.283437,0.784423 7.855312,1.421979 7.937499,1.416791 0.08219,-0.0052 -0.08444,-0.08601 -0.370284,-0.17961 z"
       id="path897"
       inkscape:connector-curvature="0" />
    <path
       style="fill:#ffff00;fill-opacity:1;stroke:none;stroke-width:1.7860713;stroke-miterlimit:4;stroke-dasharray:none"
       d="m 53.158046,32.204723 c 1.054351,-1.579041 1.634119,-2.916695 1.634119,-3.770267 0,-0.825085 -0.613333,-2.197356 -1.69091,-3.783247 l -0.529701,-0.779569 -10.002853,-7e-6 c -9.490014,-7e-6 -9.999292,0.0085 -9.933347,0.165357 0.148714,0.353805 0.151426,0.577293 0.01032,0.850174 l -0.146781,0.283839 0.350692,0.05798 c 0.192882,0.03189 0.555808,0.05844 0.806503,0.05902 0.889069,0.002 2.181783,0.55626 4.1744,1.78971 l 0.850445,0.526433 -14.268601,0.02683 -14.2686,0.02683 0.519718,0.256657 c 0.409962,0.202456 0.525807,0.309218 0.548558,0.505552 0.02996,0.258562 -0.313452,0.623592 -0.632171,0.67196 -0.08394,0.01273 6.225725,0.04463 14.021485,0.07087 l 14.174107,0.04771 -0.708705,0.468107 c -1.089136,0.719386 -3.091759,1.703157 -3.724653,1.829702 -0.307504,0.06148 -0.854554,0.111789 -1.215665,0.111789 h -0.656567 l 0.153506,0.23428 c 0.175898,0.268455 0.215268,0.569767 0.114464,0.876025 l -0.06998,0.212611 9.999112,-7.93e-4 9.999115,-7.94e-4 z"
       id="path899"
       inkscape:connector-curvature="0" />
    <path
       style="fill:#000000;fill-opacity:1;stroke:none;stroke-width:1.7860713;stroke-miterlimit:4;stroke-dasharray:none"
       d="m 56.082609,20.586281 c 0.337749,-0.271323 0.598705,-0.797626 0.599083,-1.208246 2.65e-4,-0.408884 -0.436507,-1.226551 -0.711795,-1.33219 -0.121991,-0.04681 -6.627979,1.256942 -7.301841,1.463239 -0.138642,0.04244 1.101992,0.269646 3.401785,0.622982 1.991011,0.305895 3.66254,0.570062 3.714512,0.587038 0.05197,0.01697 0.186187,-0.04279 0.298256,-0.132823 z"
       id="path901"
       inkscape:connector-curvature="0" />
    <path
       style="fill:#000000;fill-opacity:1;stroke:none;stroke-width:1.7860713;stroke-miterlimit:4;stroke-dasharray:none"
       d="m 56.240158,38.589074 c 0.353918,-0.474245 0.441889,-0.689637 0.441889,-1.081945 0,-0.423876 -0.255506,-0.946145 -0.576551,-1.178507 -0.218231,-0.157948 -0.364329,-0.142467 -3.933113,0.416735 -2.038554,0.319426 -3.696925,0.590028 -3.685268,0.601334 0.03426,0.03323 7.286212,1.54962 7.410545,1.549551 0.06232,-3.5e-5 0.216445,-0.138261 0.342498,-0.307168 z"
       id="path903"
       inkscape:connector-curvature="0" />
    <path
       style="fill:#ff5555;fill-opacity:1;stroke:none;stroke-width:1.7860713;stroke-miterlimit:4;stroke-dasharray:none"
       d="m 83.618239,38.555472 c 0.518393,-0.50931 0.931231,-0.955292 0.917418,-0.991066 -0.01381,-0.03578 -0.447687,-0.446926 -0.964164,-0.913667 l -0.939051,-0.848619 -0.792085,0.984631 -0.792086,0.984628 0.730773,0.822259 c 0.401925,0.452242 0.768098,0.837017 0.813718,0.855057 0.04562,0.01804 0.507084,-0.383911 1.025477,-0.893223 z"
       id="path905"
       inkscape:connector-curvature="0" />
    <path
       style="fill:#ff5555;fill-opacity:1;stroke:none;stroke-width:1.7860713;stroke-miterlimit:4;stroke-dasharray:none"
       d="m 83.049683,20.726109 c 0.231784,-0.211498 0.669451,-0.617185 0.972593,-0.901527 l 0.551168,-0.516984 -0.976391,-0.980125 -0.976391,-0.980125 -0.402249,0.450941 c -0.221237,0.248018 -0.572787,0.649077 -0.781221,0.891243 l -0.378971,0.440302 0.785018,0.990409 0.785019,0.990408 z"
       id="path907"
       inkscape:connector-curvature="0" />
  </g>
</svg>
