<?xml version="1.0" encoding="UTF-8" standalone="no"?>
<!-- Created with Inkscape (http://www.inkscape.org/) -->

<svg
   xmlns:dc="http://purl.org/dc/elements/1.1/"
   xmlns:cc="http://creativecommons.org/ns#"
   xmlns:rdf="http://www.w3.org/1999/02/22-rdf-syntax-ns#"
   xmlns:svg="http://www.w3.org/2000/svg"
   xmlns="http://www.w3.org/2000/svg"
   xmlns:sodipodi="http://sodipodi.sourceforge.net/DTD/sodipodi-0.dtd"
   xmlns:inkscape="http://www.inkscape.org/namespaces/inkscape"
   width="43.038891mm"
   height="85.019447mm"
   viewBox="0 0 43.038891 85.019447"
   version="1.1"
   id="svg8"
   inkscape:version="0.92.2 2405546, 2018-03-11"
   sodipodi:docname="player.svg"
   inkscape:export-filename="/home/sofia/Downloads/runaway/res/player.png"
   inkscape:export-xdpi="96"
   inkscape:export-ydpi="96">
  <defs
     id="defs2" />
  <sodipodi:namedview
     id="base"
     pagecolor="#ffffff"
     bordercolor="#666666"
     borderopacity="1.0"
     inkscape:pageopacity="0.0"
     inkscape:pageshadow="2"
     inkscape:zoom="3.959798"
     inkscape:cx="-54.866068"
     inkscape:cy="147.45074"
     inkscape:document-units="mm"
     inkscape:current-layer="layer2"
     showgrid="false"
     fit-margin-top="0"
     fit-margin-left="0"
     fit-margin-right="0"
     fit-margin-bottom="0"
     inkscape:window-width="1920"
     inkscape:window-height="1051"
     inkscape:window-x="0"
     inkscape:window-y="0"
     inkscape:window-maximized="1" />
  <metadata
     id="metadata5">
    <rdf:RDF>
      <cc:Work
         rdf:about="">
        <dc:format>image/svg+xml</dc:format>
        <dc:type
           rdf:resource="http://purl.org/dc/dcmitype/StillImage" />
        <dc:title />
      </cc:Work>
    </rdf:RDF>
  </metadata>
  <g
     inkscape:groupmode="layer"
     id="layer2"
     inkscape:label="Main"
     style="display:inline">
    <path
       style="fill:#ffffff;fill-opacity:1;stroke:#f1ffff;stroke-width:0.26458332px;stroke-linecap:butt;stroke-linejoin:miter;stroke-opacity:1"
       d="M 23.8125,0.44727457 28.631697,14.715876 c 0,0 -2.740328,7.087053 -0.472472,4.44122 2.267858,-2.645834 2.267858,-2.740327 2.267858,-2.740327 0,0 -2.740327,10.205357 -1.133927,8.220981 1.606396,-1.984375 2.173361,-1.795386 2.173361,-1.795386 0,0 1.41741,4.913689 -0.944941,17.575893 -2.362351,12.662202 -0.472469,17.953869 0.755955,9.732886 1.22842,-8.220982 3.401784,-9.638392 3.874254,-3.874257 0.472471,5.764139 3.307291,10.48884 3.685267,1.984375 0,0 2.929317,-18.048361 3.590775,-0.661457 0.661459,17.386905 -0.755952,15.40253 -1.133928,15.40253 -0.377976,0 -0.377976,4.157738 -0.377976,4.157738 0,0 -5.386161,0.283483 -6.709078,0.755953 -0.868002,0.310001 -1.654645,7.291531 -2.093014,12.05638 C 31.884085,82.469629 31.75,84.357989 31.75,84.357989 l -6.425595,0.283482 -0.09449,-4.724702 -1.606399,-0.850447 -0.09449,-2.456845 -1.6422,0.02455 -1.617864,-0.02455 -0.09449,2.45685 -1.606399,0.85045 -0.09449,4.7247 -6.425595,-0.28349 c 0,0 -0.134085,-1.88836 -0.363832,-4.38558 C 11.245788,75.207555 10.459145,68.226029 9.591142,67.916027 8.268226,67.443558 2.882065,67.160075 2.882065,67.160075 c 0,0 0,-4.157739 -0.377977,-4.157739 -0.377976,0 -1.795387,1.984375 -1.133927,-15.402528 0.661457,-17.386906 3.590774,0.661456 3.590774,0.661456 0.377977,8.504465 3.212796,3.779763 3.685267,-1.984375 0.472471,-5.764136 2.645835,-4.346726 3.874255,3.874256 1.228424,8.220983 3.118306,2.929316 0.755955,-9.732885 -2.362352,-12.662205 -0.944941,-17.575893 -0.944941,-17.575893 0,0 0.566965,-0.188989 2.173361,1.795386 1.6064,1.984376 -1.133927,-8.220981 -1.133927,-8.220981 0,0 0,0.09449 2.267858,2.740327 2.267856,2.645833 -0.472472,-4.44122 -0.472472,-4.44122 l 4.819197,-14.26860083 1.801294,0.0206671 z"
       id="path3698-3"
       inkscape:connector-curvature="0"
       sodipodi:nodetypes="ccscscssscsscsscccccccccccsscsscssscscscccc" />
    <path
       style="fill:none;stroke:#000000;stroke-width:0.26458332px;stroke-linecap:butt;stroke-linejoin:miter;stroke-opacity:1"
       d="m 25.229915,79.916768 6.883916,0.05564"
       id="path12"
       inkscape:connector-curvature="0"
       sodipodi:nodetypes="cc" />
    <path
       style="fill:none;stroke:#000000;stroke-width:0.26458332px;stroke-linecap:butt;stroke-linejoin:miter;stroke-opacity:1"
       d="m 29.293156,24.63775 c -1.169454,0.283482 -6.493326,36.569196 -1.93713,35.954985 2.296261,-0.309554 3.496279,-4.724703 3.921505,-6.142113 0.425222,-1.41741 -0.14174,-3.260042 0,-4.299479"
       id="path22"
       inkscape:connector-curvature="0"
       sodipodi:nodetypes="cscc" />
    <path
       style="fill:none;stroke:#000000;stroke-width:0.26458332px;stroke-linecap:butt;stroke-linejoin:miter;stroke-opacity:1"
       d="m 28.159225,19.157096 c 0,0 -4.157737,33.025669 -4.063243,35.482515 0.09449,2.456845 0.850446,6.236607 2.267857,7.181548 3.910736,1.348249 6.120335,-0.357776 6.378348,-5.716891 0.205556,-4.269541 2.409598,-9.827382 2.409598,-9.827382"
       id="path24"
       inkscape:connector-curvature="0"
       sodipodi:nodetypes="cccsc" />
    <path
       style="fill:none;stroke:#000000;stroke-width:0.26458332px;stroke-linecap:butt;stroke-linejoin:miter;stroke-opacity:1"
       d="M 42.427827,47.599804 C 39.508069,60.004511 38.922271,66.72393 40.915923,67.160072"
       id="path26"
       inkscape:connector-curvature="0"
       sodipodi:nodetypes="cc" />
    <path
       style="fill:none;stroke:#000000;stroke-width:0.26458332px;stroke-linecap:butt;stroke-linejoin:miter;stroke-opacity:1"
       d="m 34.584822,57.379939 c 0,0 -2.126118,6.945313 -1.228424,7.181546 0.897695,0.236236 2.220611,0.850447 2.645834,0.519718 0.425222,-0.330729 4.252232,-11.953496 2.787573,-10.536086 -1.464657,1.41741 -2.83482,1.653646 -3.543525,1.606399 -0.708705,-0.04725 -0.661458,1.228423 -0.661458,1.228423 z"
       id="path28"
       inkscape:connector-curvature="0" />
    <path
       style="fill:none;stroke:#000000;stroke-width:0.26458332px;stroke-linecap:butt;stroke-linejoin:miter;stroke-opacity:1"
       d="m 31.466517,79.255309 h -5.811384 l -1.228422,-0.755951 0.04725,-1.795389 H 31.75 Z"
       id="path72"
       inkscape:connector-curvature="0" />
    <path
       style="fill:none;stroke:#000000;stroke-width:0.26458332px;stroke-linecap:butt;stroke-linejoin:miter;stroke-opacity:1"
       d="m 26.127604,80.956202 v 2.740326 l 4.677455,-0.141739 0.188989,-2.55134 z"
       id="path74"
       inkscape:connector-curvature="0" />
    <path
       style="fill:none;stroke:#000000;stroke-width:0.25768232px;stroke-linecap:butt;stroke-linejoin:miter;stroke-opacity:1"
       d="m 31.978489,76.174802 0.63918,-5.101415 c 0,0 -1.369673,0.09275 -1.689263,-0.324635 -0.31959,-0.417387 -2.328443,-1.623177 -3.195903,-1.623177 -0.867459,0 -3.378525,-0.973905 -3.378525,-1.5768 0,-0.602894 -1.312604,-1.04347 -2.465412,-1.066658 -0.850339,0.0058 -2.465412,0.463764 -2.465412,1.066658 0,0.602895 -2.511066,1.5768 -3.378524,1.5768 -0.86746,0 -2.876313,1.20579 -3.195904,1.623177 -0.31959,0.417384 -1.689262,0.324635 -1.689262,0.324635 l 0.63918,5.101414 h 10.089922 z"
       id="path76-3"
       inkscape:connector-curvature="0"
       sodipodi:nodetypes="cccsscssccccc" />
    <path
       style="fill:none;stroke:#000000;stroke-width:0.26458332px;stroke-linecap:butt;stroke-linejoin:miter;stroke-opacity:1"
       d="M 23.686761,3.5022419 V 16.899127 h 0.968853 V 5.9410763 Z"
       id="path93"
       inkscape:connector-curvature="0"
       sodipodi:nodetypes="ccccc" />
    <path
       style="fill:none;stroke:#000000;stroke-width:0.24437369px;stroke-linecap:butt;stroke-linejoin:miter;stroke-opacity:1"
       d="m 25.757908,8.9911464 v 8.8139526 l 1.002645,0.03341 V 11.51169 Z"
       id="path93-6"
       inkscape:connector-curvature="0"
       sodipodi:nodetypes="ccccc" />
    <path
       style="fill:#ff0000;stroke-width:6.75050592;stroke-miterlimit:4;stroke-dasharray:none"
       d="m 92.586212,42.983101 c 0,-11.294643 0.04521,-15.915178 0.100459,-10.267857 0.05525,5.647321 0.05525,14.888393 0,20.535714 -0.05525,5.647322 -0.100459,1.026786 -0.100459,-10.267857 z"
       id="path119"
       inkscape:connector-curvature="0"
       transform="scale(0.26458333)" />
    <path
       style="fill:#ff0000;stroke:none;stroke-width:6.75050592;stroke-miterlimit:4;stroke-dasharray:none"
       d="m 90.294864,40.215244 0.01869,-23.125 1.034054,2.5 1.034054,2.5 0.01869,20.625 0.01869,20.625 h -1.071429 -1.071428 z"
       id="path121"
       inkscape:connector-curvature="0"
       transform="scale(0.26458333)" />
    <path
       style="fill:#ff0000;stroke:none;stroke-width:6.75050592;stroke-miterlimit:4;stroke-dasharray:none"
       d="M 98.758319,66.665484 C 98.175834,66.513265 98.134375,65.526102 98.148838,52.153342 l 0.01552,-14.348812 1.234481,3.015373 1.234481,3.015374 v 11.538198 c 0,12.564739 0.12457,11.814551 -1.875001,11.292009 z"
       id="path123"
       inkscape:connector-curvature="0"
       transform="scale(0.26458333)" />
    <path
       style="fill:none;stroke:#000000;stroke-width:0.26458332px;stroke-linecap:butt;stroke-linejoin:miter;stroke-opacity:1"
       d="m 18.568073,79.916765 -6.883917,0.0556"
       id="path12-6"
       inkscape:connector-curvature="0"
       sodipodi:nodetypes="cc" />
    <path
       style="fill:none;stroke:#000000;stroke-width:0.26458332px;stroke-linecap:butt;stroke-linejoin:miter;stroke-opacity:1"
       d="m 14.504832,24.63775 c 1.169454,0.283482 6.493326,36.569197 1.93713,35.954986 -2.296261,-0.309555 -3.496279,-4.724705 -3.921505,-6.142114 -0.425222,-1.41741 0.14174,-3.260043 0,-4.29948"
       id="path22-7"
       inkscape:connector-curvature="0"
       sodipodi:nodetypes="cscc" />
    <path
       style="fill:none;stroke:#000000;stroke-width:0.26458332px;stroke-linecap:butt;stroke-linejoin:miter;stroke-opacity:1"
       d="m 15.638763,19.157096 c 0,0 4.157737,33.025668 4.063243,35.482515 -0.09449,2.456844 -0.850446,6.236607 -2.267857,7.181548 C 13.523413,63.169407 11.313814,61.463384 11.0558,56.104267 10.850245,51.834726 8.646202,46.276886 8.646202,46.276886"
       id="path24-5"
       inkscape:connector-curvature="0"
       sodipodi:nodetypes="cccsc" />
    <path
       style="fill:none;stroke:#000000;stroke-width:0.26458332px;stroke-linecap:butt;stroke-linejoin:miter;stroke-opacity:1"
       d="M 1.370161,47.599805 C 4.289919,60.004511 4.875716,66.723931 2.882065,67.160072"
       id="path26-3"
       inkscape:connector-curvature="0"
       sodipodi:nodetypes="cc" />
    <path
       style="fill:none;stroke:#000000;stroke-width:0.26458332px;stroke-linecap:butt;stroke-linejoin:miter;stroke-opacity:1"
       d="m 9.213166,57.37994 c 0,0 2.126117,6.945313 1.228424,7.181546 C 9.543895,64.797722 8.220978,65.411933 7.795755,65.081204 7.370533,64.750475 3.543523,53.127707 5.008182,54.545117 c 1.464658,1.41741 2.834821,1.653646 3.543526,1.6064 0.708705,-0.04725 0.661458,1.228423 0.661458,1.228423 z"
       id="path28-5"
       inkscape:connector-curvature="0" />
    <path
       style="fill:none;stroke:#000000;stroke-width:0.26458332px;stroke-linecap:butt;stroke-linejoin:miter;stroke-opacity:1"
       d="m 12.331471,79.255305 h 5.811384 l 1.228422,-0.75595 -0.04725,-1.79539 h -7.276039 z"
       id="path72-6"
       inkscape:connector-curvature="0" />
    <path
       style="fill:none;stroke:#000000;stroke-width:0.26458332px;stroke-linecap:butt;stroke-linejoin:miter;stroke-opacity:1"
       d="m 17.670384,80.956205 v 2.74032 l -4.677455,-0.14174 -0.188989,-2.55134 z"
       id="path74-2"
       inkscape:connector-curvature="0" />
    <path
       style="fill:none;stroke:#000000;stroke-width:0.26458332px;stroke-linecap:butt;stroke-linejoin:miter;stroke-opacity:1"
       d="M 20.111227,3.5022422 V 16.899127 H 19.142374 V 5.9410762 Z"
       id="path93-9"
       inkscape:connector-curvature="0"
       sodipodi:nodetypes="ccccc" />
    <path
       style="fill:none;stroke:#000000;stroke-width:0.24437369px;stroke-linecap:butt;stroke-linejoin:miter;stroke-opacity:1"
       d="m 18.04008,8.9911462 v 8.8139528 l -1.002645,0.03341 V 11.51169 Z"
       id="path93-6-1"
       inkscape:connector-curvature="0"
       sodipodi:nodetypes="ccccc" />
    <path
       style="fill:#ff0000;stroke-width:1.7860713;stroke-miterlimit:4;stroke-dasharray:none"
       d="m 19.301219,11.372612 c 0,-2.9883738 -0.01196,-4.2108908 -0.02658,-2.7167038 -0.01462,1.4941868 -0.01462,3.9392208 0,5.4334078 0.01462,1.494187 0.02658,0.27167 0.02658,-2.716704 z"
       id="path119-2"
       inkscape:connector-curvature="0" />
    <path
       style="fill:#ff0000;stroke:none;stroke-width:1.7860713;stroke-miterlimit:4;stroke-dasharray:none"
       d="m 19.907472,10.640283 -0.005,-6.1184888 -0.273594,0.661458 -0.273593,0.661458 -0.005,5.4570308 -0.0049,5.457032 h 0.283497 0.283482 z"
       id="path121-7"
       inkscape:connector-curvature="0" />
    <path
       style="fill:#ff0000;stroke:none;stroke-width:1.7860713;stroke-miterlimit:4;stroke-dasharray:none"
       d="m 17.668183,17.638576 c 0.154116,-0.04028 0.165085,-0.301462 0.161258,-3.839671 l -0.0041,-3.796456 -0.326623,0.797817 -0.326623,0.797817 v 3.052815 c 0,3.324421 -0.03296,3.125934 0.496094,2.987678 z"
       id="path123-0"
       inkscape:connector-curvature="0" />
    <path
       style="fill:#cccccc;stroke:none;stroke-width:4.7733283;stroke-miterlimit:4;stroke-dasharray:none"
       d="m 54.710228,234.48303 c -4.987853,-0.88597 -8.470496,-4.4709 -10.436278,-10.74281 -0.954076,-3.04402 -1.3943,-5.71731 -1.822334,-11.06625 -0.212359,-2.65374 -0.559129,-6.01823 -0.770601,-7.47664 -1.097517,-7.56897 -3.959114,-18.25817 -7.517127,-28.07944 l -0.886426,-2.44683 0.365587,-2.85647 c 0.653629,-5.10707 2.054544,-8.99877 3.392155,-9.42331 1.382411,-0.43876 3.286421,2.2069 4.998585,6.94564 1.635304,4.52601 3.057483,10.41299 4.205438,17.40802 l 0.638212,3.88893 -0.403698,4.56695 c -0.593413,6.71312 -0.427122,8.6771 1.167145,13.78459 2.796465,8.95891 5.586967,14.44254 9.011836,17.7092 1.602394,1.52838 2.842268,2.26675 4.601994,2.74059 4.11814,1.1089 6.507362,-3.00391 7.771993,-13.37873 0.363364,-2.98098 0.444641,-5.63382 0.437151,-14.2684 -0.01048,-12.07128 -0.457665,-20.48782 -1.891935,-35.60788 -2.574775,-27.14323 -7.77916,-61.13564 -10.738228,-70.136677 -0.355822,-1.082358 -0.355381,-1.246692 0.0047,-1.760825 1.148041,-1.639058 -0.336711,-11.17321 -4.003579,-25.708485 -0.473038,-1.875096 -0.838021,-3.431399 -0.811074,-3.458451 0.06354,-0.06379 6.031694,6.958835 6.299137,7.412093 0.577706,0.97908 11.760052,94.073925 14.297911,119.032425 1.256018,12.35229 1.353397,14.03519 1.027613,17.75958 -0.896973,10.25434 -3.687898,19.41042 -6.935021,22.75146 -0.878767,0.90419 -1.365784,1.16199 -3.052004,1.61557 -3.634897,0.97776 -6.496064,1.23224 -8.951184,0.79615 z"
       id="path882"
       inkscape:connector-curvature="0"
       transform="scale(0.26458333)" />
    <path
       style="fill:#aa0000;stroke:none;stroke-width:4.7733283;stroke-miterlimit:4;stroke-dasharray:none"
       d="m 105.38084,234.46674 c -3.0388,-0.44386 -5.28145,-1.22901 -6.307672,-2.2083 -2.731466,-2.60656 -5.160661,-9.07954 -6.468608,-17.23665 -0.879443,-5.48471 -1.02148,-8.4508 -0.639093,-13.34581 1.044052,-13.36507 5.54547,-52.36131 12.882483,-111.602241 1.70167,-13.739717 2.22847,-17.382435 2.57992,-17.839872 0.74202,-0.965776 5.9948,-7.150251 6.0374,-7.10827 0.022,0.02164 -0.57419,2.596289 -1.32477,5.721449 -3.45151,14.370849 -4.58128,21.884775 -3.51863,23.401918 0.33747,0.481805 0.28947,0.859299 -0.49685,3.907397 -3.44474,13.353199 -8.00639,44.234119 -10.34673,70.044139 -2.999425,33.07857 -2.309338,53.88509 1.974887,59.54402 1.082773,1.43021 2.247833,2.01587 3.656663,1.83815 5.63479,-0.71083 10.33553,-7.37856 14.4464,-20.49141 1.69508,-5.40695 1.65668,-4.83615 1.10275,-16.39456 -0.13762,-2.87164 -0.0739,-3.75765 0.50865,-7.07107 2.18057,-12.40297 5.20972,-21.22954 7.88789,-22.98435 1.71397,-1.12303 3.26133,1.48767 4.24623,7.16421 0.76295,4.39738 0.70952,4.78382 -1.57649,11.40072 -4.10036,11.86864 -6.22409,21.38332 -6.87689,30.80965 -0.14909,2.15289 -0.49592,5.27368 -0.77074,6.9351 -1.93593,11.70377 -7.61327,16.8864 -16.9968,15.51578 z"
       id="path884"
       inkscape:connector-curvature="0"
       transform="scale(0.26458333)" />
    <path
       style="fill:#aa0000;stroke:none;stroke-width:4.7733283;stroke-miterlimit:4;stroke-dasharray:none"
       d="m 55.095511,234.54063 c -0.0424,-0.0426 -0.345305,-0.11277 -0.673127,-0.15601 -0.673408,-0.0888 -1.121505,-0.24835 -2.742613,-0.97639 -0.625032,-0.28071 -1.193243,-0.50303 -1.262691,-0.49405 -0.160755,0.0208 -3.796166,-3.67524 -3.787651,-3.85079 0.0035,-0.072 -0.280041,-0.69607 -0.630074,-1.38682 -0.350032,-0.69076 -0.844968,-1.798 -1.099858,-2.46053 -0.25489,-0.66254 -0.553261,-1.4319 -0.663046,-1.70969 -0.109786,-0.27779 -0.235347,-0.77667 -0.279025,-1.10862 -0.04368,-0.33195 -0.158072,-0.78652 -0.254209,-1.01015 -0.220651,-0.51329 -0.287426,-0.86212 -0.46457,-2.42692 -0.07862,-0.69448 -0.211257,-1.54679 -0.294751,-1.89403 -0.08349,-0.34724 -0.185206,-1.14274 -0.226026,-1.76777 -0.107812,-1.65079 -0.338663,-4.22953 -0.508666,-5.68211 -0.292848,-2.50223 -0.356351,-3.05165 -0.510518,-4.41705 -0.143948,-1.27488 -0.391658,-2.69221 -0.750733,-4.29551 -0.07777,-0.34724 -0.207858,-1.08592 -0.289089,-1.6415 -0.08123,-0.55559 -0.252526,-1.20903 -0.380655,-1.4521 -0.12813,-0.24306 -0.184467,-0.44194 -0.125194,-0.44194 0.08566,0 -0.972533,-4.3344 -1.4797,-6.06091 -0.0612,-0.20835 -0.231155,-0.8902 -0.377674,-1.51523 -0.146519,-0.62503 -0.327525,-1.30689 -0.402234,-1.51523 -0.07471,-0.20835 -0.141357,-0.43563 -0.148105,-0.50508 -0.0067,-0.0694 -0.225039,-0.66607 -0.48509,-1.32582 -0.260052,-0.65976 -0.425178,-1.19956 -0.366947,-1.19956 0.0984,0 -1.425438,-4.71129 -1.797001,-5.55584 -0.09166,-0.20834 -0.190678,-0.46404 -0.220036,-0.56821 -0.02936,-0.10417 -0.07603,-0.21781 -0.103711,-0.25254 -0.02768,-0.0347 -0.09425,-0.29427 -0.147925,-0.57678 -0.05368,-0.28251 -0.292608,-0.96436 -0.53096,-1.51523 -0.660878,-1.52739 -0.749444,-2.40122 -0.459849,-4.53711 0.09416,-0.69448 0.201917,-1.5468 0.239456,-1.89404 0.03754,-0.34724 0.152751,-0.83512 0.256025,-1.08418 0.103275,-0.24906 0.117898,-0.5227 0.0325,-0.60811 -0.0854,-0.0854 -0.06025,-0.27937 0.05588,-0.43105 0.116138,-0.15167 0.3603,-0.84398 0.542582,-1.53846 0.363963,-1.38667 1.105722,-3.00271 1.738833,-3.78832 1.272378,-1.57887 3.672127,1.36111 5.565819,6.81878 0.433745,1.25006 0.860662,2.4433 0.948704,2.65165 0.08804,0.20834 0.14335,0.46009 0.122905,0.55945 -0.02045,0.0994 0.09288,0.4971 0.251824,0.88388 0.158949,0.38678 0.30325,0.81688 0.320669,0.95578 0.145128,1.15718 0.480251,2.42221 0.673278,2.54151 0.129076,0.0798 0.179302,0.23465 0.111612,0.34417 -0.06769,0.10953 -0.0064,0.58465 0.136246,1.05584 0.142625,0.47119 0.312843,1.25445 0.378263,1.74059 0.06542,0.48613 0.192792,1.11116 0.28305,1.38896 0.1758,0.54107 0.209594,0.71466 0.442465,2.27284 0.08303,0.55558 0.336169,2.03293 0.562525,3.28299 0.414449,2.28883 0.480799,4.63337 0.203683,7.19734 -0.337536,3.123 -0.407435,7.37051 -0.148156,9.0029 0.417732,2.63001 0.530295,3.21167 0.701314,3.62401 0.08641,0.20834 0.183897,0.49245 0.216634,0.63134 0.298088,1.26471 0.985009,3.34501 1.188289,3.59867 0.139136,0.17362 0.15951,0.31567 0.04528,0.31567 -0.114234,0 -0.07133,0.13638 0.09535,0.30305 0.166676,0.16668 0.303046,0.44338 0.303046,0.61491 0,0.17152 0.131104,0.63177 0.291342,1.02278 0.160239,0.391 0.320682,0.85321 0.356542,1.02713 0.159918,0.7756 3.165371,6.98684 3.431423,7.09157 0.117613,0.0463 0.213842,0.23705 0.213842,0.4239 0,0.18685 0.142052,0.4899 0.315672,0.67344 0.17362,0.18354 0.797732,0.96805 1.386915,1.74335 1.444532,1.90084 2.764441,3.08428 4.385107,3.9317 1.373194,0.71802 1.535053,0.77386 2.877409,0.99253 1.152135,0.18769 2.882506,-0.8092 3.807836,-2.19373 0.598073,-0.89488 1.887478,-4.12318 2.006625,-5.02402 0.01942,-0.14684 0.314248,-1.6099 0.5089,-2.52538 0.298586,-1.40432 0.521289,-3.07835 0.789512,-5.93465 0.200233,-2.13229 0.195025,-20.74411 -0.007,-25.00128 -0.228093,-4.80657 -0.36662,-7.22819 -0.541732,-9.47018 -0.08136,-1.04172 -0.198728,-2.57589 -0.260806,-3.40926 -0.06208,-0.83338 -0.163976,-2.08344 -0.226436,-2.77792 -0.06246,-0.69448 -0.177704,-2.05819 -0.256099,-3.03046 -0.07839,-0.97227 -0.192732,-2.27915 -0.254086,-2.90419 -0.06135,-0.62503 -0.171082,-1.76145 -0.243841,-2.52538 -0.07276,-0.76393 -0.19679,-1.95717 -0.275625,-2.65165 -0.07884,-0.69448 -0.190427,-1.77408 -0.24798,-2.39911 -0.05755,-0.62503 -0.165496,-1.67633 -0.239873,-2.33622 -0.07438,-0.65989 -0.188609,-1.68267 -0.253844,-2.27284 -0.06524,-0.59018 -0.175022,-1.52762 -0.243965,-2.0832 -0.06894,-0.55559 -0.186355,-1.52154 -0.260912,-2.14658 -0.07456,-0.62503 -0.196634,-1.59099 -0.271281,-2.14657 -0.07465,-0.55558 -0.19971,-1.57836 -0.277919,-2.27284 -0.188668,-1.67532 -0.262854,-2.28574 -0.460377,-3.78807 -0.09131,-0.69448 -0.213405,-1.64568 -0.271329,-2.11377 -0.05792,-0.46809 -0.164736,-1.26359 -0.237363,-1.76777 -0.07263,-0.50418 -0.189725,-1.34285 -0.260213,-1.86371 l -0.256321,-1.89403 c -0.258637,-1.91117 -0.408372,-2.98203 -0.503185,-3.59867 -0.117769,-0.76593 -0.388328,-2.6275 -0.532204,-3.6618 -0.320226,-2.30206 -0.562044,-3.91486 -0.719431,-4.79823 -0.04949,-0.27779 -0.166483,-1.01647 -0.259977,-1.6415 -0.09349,-0.62503 -0.207897,-1.3637 -0.254231,-1.6415 -0.04633,-0.27779 -0.159126,-1.07328 -0.250656,-1.76776 -0.09153,-0.69448 -0.334793,-2.11501 -0.540586,-3.15673 -0.205791,-1.04172 -0.424719,-2.29178 -0.486505,-2.77792 -0.06179,-0.48613 -0.185769,-1.16799 -0.275516,-1.51523 -0.219582,-0.84956 -0.281653,-1.19378 -0.45539,-2.52538 -0.08155,-0.62503 -0.373716,-2.10238 -0.649257,-3.28299 -0.275542,-1.18062 -0.55145,-2.45195 -0.613128,-2.8252 -0.06168,-0.37323 -0.252591,-1.16873 -0.424255,-1.76776 -0.365409,-1.275129 -0.318015,-1.079798 -0.570636,-2.351843 -0.110335,-0.555584 -0.317997,-1.152205 -0.461471,-1.325825 -0.143474,-0.17362 -0.202093,-0.315673 -0.130266,-0.315673 0.07183,0 0.04513,-0.378968 -0.05934,-0.842151 -0.129327,-0.573416 -0.08055,-0.99175 0.152864,-1.310958 0.399914,-0.546917 0.450307,-3.056419 0.106362,-5.296766 -0.127943,-0.833375 -0.294381,-1.969797 -0.369863,-2.525381 -0.07548,-0.555584 -0.187929,-1.251447 -0.249883,-1.546362 -0.06195,-0.294914 -0.176704,-0.919946 -0.255002,-1.388959 -0.0783,-0.469013 -0.204405,-1.136856 -0.280238,-1.484096 -0.07583,-0.34724 -0.204341,-1.085914 -0.285572,-1.641498 -0.08123,-0.555584 -0.252526,-1.209026 -0.380655,-1.452094 -0.12813,-0.243068 -0.184111,-0.441942 -0.124404,-0.441942 0.05971,0 0.0023,-0.426158 -0.127474,-0.947018 -0.129818,-0.52086 -0.295691,-1.287945 -0.368605,-1.704633 -0.07291,-0.416688 -0.257979,-1.212183 -0.411255,-1.767767 -0.40465,-1.46674 -0.403736,-1.463326 -0.557651,-2.083439 -0.07757,-0.312516 -0.197853,-0.795495 -0.267301,-1.073287 -0.341695,-1.366779 -0.412636,-1.705383 -0.525755,-2.509456 -0.06716,-0.477377 -0.231047,-0.999223 -0.364196,-1.159657 -0.133149,-0.160435 -0.17006,-0.363729 -0.08202,-0.451765 0.08804,-0.08804 0.01631,-0.333274 -0.159382,-0.544975 -0.175696,-0.2117 -0.2203,-0.381129 -0.09912,-0.376508 0.323914,0.01235 1.356748,0.918164 1.356748,1.18989 0,0.128397 0.312516,0.53559 0.69448,0.904874 0.381963,0.369284 0.978585,1.02936 1.325825,1.466836 0.34724,0.437475 0.91545,1.107209 1.26269,1.488297 0.799826,0.87779 1.237358,1.514842 1.425745,2.075903 0.08161,0.243068 0.233022,0.441942 0.336456,0.441942 0.103435,0 0.134116,0.28221 0.06818,0.627134 -0.06594,0.344923 -0.03737,0.827902 0.06349,1.073287 0.100858,0.245384 0.2144,0.78708 0.252316,1.203768 0.03791,0.416688 0.135039,1.240857 0.215831,1.831488 0.08079,0.59063 0.203715,1.528442 0.273163,2.084026 l 0.252538,2.020305 c 0.221393,1.771127 0.365037,2.878999 0.491005,3.786899 0.06745,0.486136 0.192371,1.452094 0.277603,2.146574 0.08523,0.69448 0.198874,1.603617 0.252538,2.020305 0.05366,0.416688 0.167307,1.325825 0.252538,2.020305 0.08523,0.69448 0.198874,1.603617 0.252538,2.020305 0.05367,0.416688 0.167307,1.325825 0.252538,2.020305 0.08523,0.69448 0.207334,1.660439 0.271335,2.146574 0.064,0.486136 0.163503,1.281631 0.221112,1.767767 0.127322,1.074389 0.337272,2.782309 0.521337,4.241059 0.07525,0.59638 0.196909,1.61915 0.27035,2.27284 0.07344,0.65368 0.177431,1.52944 0.231095,1.94613 0.05367,0.41669 0.166966,1.32582 0.251781,2.0203 0.08481,0.69448 0.210263,1.71726 0.278774,2.27285 0.06851,0.55558 0.174448,1.46472 0.235416,2.0203 0.102503,0.93409 0.251445,2.1466 0.496333,4.04061 0.149735,1.15808 0.391152,3.16911 0.515378,4.29315 0.0614,0.55558 0.163064,1.4079 0.225915,1.89404 0.153713,1.18889 0.400213,3.21091 0.523368,4.29314 0.253561,2.2282 0.491815,4.25727 0.748813,6.37718 0.07152,0.58998 0.181459,1.52727 0.244301,2.08285 0.06284,0.55559 0.171832,1.46472 0.242207,2.02031 0.122463,0.96681 0.32666,2.67396 0.513513,4.29315 0.04809,0.41668 0.160475,1.55311 0.249755,2.52538 0.08928,0.97227 0.232896,2.10869 0.319143,2.52538 0.08625,0.41669 0.194591,1.15536 0.240767,1.6415 0.09009,0.9485 0.272398,2.61187 0.442854,4.04061 0.058,0.48613 0.171642,1.45209 0.252538,2.14657 0.0809,0.69448 0.19454,1.66044 0.252538,2.14657 0.206945,1.73457 0.388578,3.30245 0.519372,4.48327 0.307493,2.77606 0.538063,4.79891 0.734018,6.43972 0.07884,0.66015 0.200164,1.71166 0.269612,2.33669 l 0.252538,2.27284 c 0.06945,0.62504 0.179926,1.61908 0.245507,2.209 0.06558,0.58992 0.185735,1.86807 0.267006,2.84034 0.08127,0.97227 0.220211,2.1087 0.308751,2.52538 0.08854,0.41669 0.185515,1.09855 0.215503,1.51523 0.214746,2.98401 0.420444,5.1146 0.529214,5.48155 0.07023,0.23694 0.175785,1.0042 0.23456,1.70504 0.09965,1.1882 0.169196,1.91209 0.480244,4.99878 0.528805,5.24759 0.669883,7.4057 0.664441,10.16426 -0.0078,3.95847 -0.433825,7.84081 -1.385588,12.6269 -0.04143,0.20835 -0.143109,0.54928 -0.225951,0.75762 -0.207395,0.52159 -0.98477,3.54807 -1.0703,4.16688 -0.03839,0.27779 -0.09348,0.53349 -0.12242,0.56821 -0.02894,0.0347 -0.08102,0.17678 -0.115746,0.31567 -0.03472,0.1389 -0.0908,0.33777 -0.124607,0.44194 -0.03381,0.10418 -0.04802,0.27464 -0.03157,0.37881 0.01644,0.10417 -0.06575,0.1894 -0.182658,0.1894 -0.213655,0 -0.929353,1.98201 -0.843518,2.33598 0.02526,0.10417 -0.08665,0.18941 -0.248699,0.18941 -0.162044,0 -0.224277,0.0703 -0.138295,0.15633 0.08598,0.086 -0.0098,0.32243 -0.212769,0.52544 -0.203005,0.203 -0.30453,0.47358 -0.225607,0.60128 0.07892,0.12769 0.04765,0.23217 -0.0695,0.23217 -0.228893,0 -1.149551,1.4366 -1.026954,1.60246 0.04054,0.0549 -0.437671,0.51305 -1.062703,1.0182 -0.625032,0.50516 -1.304092,1.05971 -1.509022,1.23234 -0.204929,0.17264 -0.403803,0.28547 -0.441941,0.25075 -0.03814,-0.0347 -0.09775,-0.0537 -0.132477,-0.0421 -0.03472,0.0116 -0.290419,0.0578 -0.568211,0.10278 -0.277792,0.045 -1.357392,0.26316 -2.399112,0.4849 -1.644761,0.35009 -6.214467,0.66995 -6.433247,0.4503 z"
       id="path886"
       inkscape:connector-curvature="0"
       transform="scale(0.26458333)" />
    <path
       style="fill:#aa0000;stroke:none;stroke-width:4.7733283;stroke-miterlimit:4;stroke-dasharray:none"
       d="m 11.421988,248.32554 c -0.205151,-5.42547 -0.564548,-8.8289 -1.057545,-10.01476 -0.338605,-0.81449 -0.3997825,-0.84571 -1.3571397,-0.69262 -0.8604322,0.13758 -1.0544454,0.0795 -1.3686344,-0.40976 -1.0494291,-1.63418 -1.7700776,-6.29388 -2.1972135,-14.20713 -0.3343907,-6.19502 -0.1669133,-36.44829 0.2054556,-37.11368 0.3681148,-0.65778 4.649744,19.7021 6.503759,30.9265 3.325952,20.13565 3.305858,32.63687 -0.05735,35.67833 -0.491756,0.44471 -0.498552,0.40253 -0.671332,-4.16688 z"
       id="path888"
       inkscape:connector-curvature="0"
       transform="scale(0.26458333)" />
    <path
       style="fill:#aa0000;stroke:none;stroke-width:4.7733283;stroke-miterlimit:4;stroke-dasharray:none"
       d="m 153.10715,252.10928 c -1.57176,-2.06067 -2.17989,-5.24737 -2.17989,-11.42286 0,-10.42586 2.36363,-26.07671 7.38103,-48.87361 l 1.58407,-7.19733 0.19706,5.55583 c 0.32399,9.13456 0.0489,35.25845 -0.41235,39.1629 -0.47959,4.05948 -1.03251,6.55958 -1.68972,7.64026 -0.44764,0.7361 -0.58801,0.80555 -1.34204,0.66409 -1.72384,-0.32339 -2.0322,0.86874 -2.45209,9.47983 -0.15237,3.12501 -0.31305,5.71783 -0.35704,5.76183 -0.044,0.044 -0.37206,-0.30292 -0.72903,-0.77094 z"
       id="path890"
       inkscape:connector-curvature="0"
       transform="scale(0.26458333)" />
    <path
       style="fill:#ffd42a;stroke:none;stroke-width:4.7733283;stroke-miterlimit:4;stroke-dasharray:none"
       d="m 29.793606,245.31785 c -0.921281,-1.13899 -5.604927,-14.74589 -8.290097,-24.08434 -2.413588,-8.39395 -3.673224,-14.52095 -2.98533,-14.52095 0.133976,0 0.519097,0.29641 0.855824,0.65869 2.53246,2.72462 8.359462,5.40223 11.756313,5.40223 0.723386,0 1.499208,0.0706 1.724049,0.15687 0.599668,0.23011 1.096696,1.34622 1.290201,2.89723 0.09369,0.75092 0.661257,3.12677 1.26127,5.27966 2.736737,9.8196 3.898241,15.29271 4.082248,19.23589 l 0.137529,2.94719 -3.253698,1.05286 c -3.603562,1.16608 -6.121705,1.53918 -6.578309,0.97467 z"
       id="path892"
       inkscape:connector-curvature="0"
       transform="scale(0.26458333)" />
    <path
       style="fill:#ffd42a;stroke:none;stroke-width:4.7733283;stroke-miterlimit:4;stroke-dasharray:none"
       d="m 60.993954,228.08219 c -3.236258,-1.15648 -6.410651,-4.97122 -8.963312,-10.77141 -1.347284,-3.06132 -3.178636,-8.32451 -4.026839,-11.57288 -0.636801,-2.43877 -0.810881,-5.83597 -0.45212,-8.82318 l 0.160669,-1.33781 0.698532,2.77135 c 0.756183,3.00009 1.795351,5.56983 2.516145,6.22214 0.276454,0.25018 0.773059,0.3784 1.27442,0.32902 1.012886,-0.0998 1.564821,-1.0471 2.196341,-3.76984 0.619874,-2.67254 0.609897,-17.17215 -0.01606,-23.33263 -0.908736,-8.94358 -1.942625,-15.93896 -4.310964,-29.16834 -4.125502,-23.04478 -5.481522,-45.35637 -3.55314,-58.462397 0.49598,-3.370869 0.438494,-3.260351 1.432667,-2.754329 1.349085,0.686667 3.329928,2.500803 5.3184,4.870804 1.813615,2.161595 1.891089,2.310158 2.668592,5.117297 3.950543,14.263245 9.525934,54.054935 11.512468,82.164725 1.029479,14.5673 1.140977,29.79598 0.270552,36.95279 -0.726092,5.97008 -1.986396,9.82981 -3.673129,11.2491 -0.868119,0.73048 -1.662467,0.81258 -3.053225,0.31559 z"
       id="path894"
       inkscape:connector-curvature="0"
       transform="scale(0.26458333)" />
    <path
       style="fill:#ffd42a;stroke:none;stroke-width:4.7733283;stroke-miterlimit:4;stroke-dasharray:none"
       d="m 129.84032,244.54735 c -1.80564,-0.5653 -3.44065,-1.15402 -3.63335,-1.30827 -0.2766,-0.22141 -0.31931,-0.83933 -0.20288,-2.93552 0.20847,-3.75327 1.69934,-10.65558 4.20087,-19.44886 0.53343,-1.8751 1.04505,-3.97748 1.13694,-4.67196 0.24313,-1.83752 0.62168,-2.87394 1.1537,-3.15866 0.25753,-0.13783 1.07234,-0.25228 1.81067,-0.25434 3.64518,-0.0101 7.43728,-1.73572 12.05179,-5.48413 l 0.86038,-0.6989 -0.13794,1.64129 c -0.31716,3.77391 -2.8226,12.97256 -6.74077,24.74853 -1.36331,4.09743 -2.96218,8.61471 -3.55303,10.03839 l -1.07428,2.58851 -1.29455,-0.0141 c -0.77232,-0.008 -2.61893,-0.42875 -4.57755,-1.04194 z"
       id="path896"
       inkscape:connector-curvature="0"
       transform="scale(0.26458333)" />
    <path
       style="fill:#ffd42a;stroke:none;stroke-width:4.7733283;stroke-miterlimit:4;stroke-dasharray:none"
       d="m 101.22004,227.51759 c -3.912684,-3.934 -5.024662,-20.32646 -3.192907,-47.06899 1.781619,-26.01057 6.741247,-62.83618 10.747647,-79.80205 1.44016,-6.09867 1.96631,-7.07728 5.87328,-10.924058 1.36389,-1.342881 3.59286,-2.906107 3.81995,-2.679018 0.20959,0.209594 0.88896,5.620587 1.16889,9.309923 0.36543,4.816153 0.15883,17.120963 -0.39858,23.738583 -0.82986,9.85211 -2.20577,19.85635 -4.43266,32.22977 -2.89725,16.09815 -4.28176,28.71652 -4.27763,38.98599 0.004,9.31172 0.88679,13.38635 2.9448,13.58815 1.38086,0.13541 2.3748,-1.61645 3.59754,-6.34077 0.61084,-2.36013 0.72765,-2.61972 0.86648,-1.9256 0.30456,1.52282 0.16133,6.89089 -0.22792,8.54225 -0.2095,0.88876 -1.0061,3.48856 -1.77023,5.77732 -3.58117,10.72658 -7.9429,16.75428 -12.58398,17.3904 -1.09897,0.15064 -1.20989,0.10793 -2.13468,-0.8219 z"
       id="path898"
       inkscape:connector-curvature="0"
       transform="scale(0.26458333)" />
    <path
       style="fill:#ff0000;stroke:none;stroke-width:4.7733283;stroke-miterlimit:4;stroke-dasharray:none"
       d="m 99.409478,311.25704 v -4.53938 h 8.531222 8.53123 l -0.30825,3.97748 c -0.16954,2.18761 -0.31522,4.10651 -0.32374,4.26423 -0.011,0.20335 -2.20059,0.33402 -7.52849,0.44928 -4.13216,0.0894 -7.82553,0.2132 -8.20749,0.27514 l -0.694482,0.11262 z"
       id="path900"
       inkscape:connector-curvature="0"
       transform="scale(0.26458333)" />
    <path
       style="fill:#ff0000;stroke:none;stroke-width:4.7733283;stroke-miterlimit:4;stroke-dasharray:none"
       d="m 57.833495,315.4828 -8.114681,-0.23885 -0.152492,-1.67463 c -0.08387,-0.92104 -0.227112,-2.83946 -0.318314,-4.26314 l -0.165821,-2.58852 h 8.496129 8.496128 v 4.54569 c 0,2.50013 -0.02841,4.52602 -0.06313,4.50199 -0.03472,-0.024 -3.714741,-0.15118 -8.177815,-0.28254 z"
       id="path902"
       inkscape:connector-curvature="0"
       transform="scale(0.26458333)" />
    <path
       style="fill:#ff0000;stroke:none;stroke-width:4.7733283;stroke-miterlimit:4;stroke-dasharray:none"
       d="m 47.12128,298.57331 c -0.007,-0.17362 -0.212336,-2.04872 -0.456208,-4.16688 l -0.443404,-3.85121 h 13.083115 13.083115 l 0.0015,0.82075 c 7.58e-4,0.45141 0.07319,1.74129 0.160786,2.86639 l 0.159271,2.04564 -2.153027,1.30049 -2.15303,1.30049 H 57.768749 c -8.332544,0 -10.637436,-0.0683 -10.647469,-0.31567 z"
       id="path904"
       inkscape:connector-curvature="0"
       transform="scale(0.26458333)" />
    <path
       style="fill:#550000;stroke:none;stroke-width:4.7733283;stroke-miterlimit:4;stroke-dasharray:none"
       d="m 94.990061,297.6087 c -1.111168,-0.69314 -2.010835,-1.4273 -1.99926,-1.63148 0.01157,-0.20418 0.03999,-1.50766 0.06313,-2.89662 l 0.04209,-2.52538 h 13.143429 13.14343 l -0.13339,0.82075 c -0.0734,0.45141 -0.25092,1.95717 -0.39458,3.34613 -0.14365,1.38896 -0.32121,2.89472 -0.39457,3.34613 l -0.13339,0.82075 -10.65829,-0.01 -10.658298,-0.01 z"
       id="path906"
       inkscape:connector-curvature="0"
       transform="scale(0.26458333)" />
    <path
       style="fill:#550000;stroke:none;stroke-width:4.7733283;stroke-miterlimit:4;stroke-dasharray:none"
       d="m 51.147922,298.70024 -3.941113,-0.0763 -0.293998,-2.8999 c -0.161699,-1.59495 -0.363972,-3.41042 -0.449495,-4.03439 l -0.155498,-1.13448 h 13.04004 13.04004 l 0.0028,1.95717 c 0.0015,1.07645 0.06367,2.35492 0.138082,2.84106 0.135103,0.88255 0.131896,0.88588 -2.130974,2.20971 l -2.266279,1.32582 -6.521235,-0.0562 c -3.586679,-0.0309 -8.294736,-0.0906 -10.462348,-0.1325 z"
       id="path908"
       inkscape:connector-curvature="0"
       transform="scale(0.26458333)" />
    <path
       style="fill:#550000;stroke:none;stroke-width:4.7733283;stroke-miterlimit:4;stroke-dasharray:none"
       d="m 55.089036,315.31706 c -2.639024,-0.0829 -4.924648,-0.23038 -5.079165,-0.32784 -0.163123,-0.1029 -0.351894,-1.42436 -0.450134,-3.1511 -0.09306,-1.63563 -0.235232,-3.45686 -0.315945,-4.04717 l -0.146751,-1.07329 h 8.488702 8.488701 v 2.86715 c 0,1.57693 -0.07301,3.56566 -0.162244,4.41941 l -0.162245,1.55228 -2.931347,-0.0444 c -1.612241,-0.0244 -5.090549,-0.11218 -7.729572,-0.19503 z"
       id="path910"
       inkscape:connector-curvature="0"
       transform="scale(0.26458333)" />
    <path
       style="fill:#550000;stroke:none;stroke-width:4.7733283;stroke-miterlimit:4;stroke-dasharray:none"
       d="m 99.409478,311.13414 v -4.41648 h 8.478982 8.47899 l -0.17964,2.33598 c -0.0988,1.28479 -0.24939,3.13147 -0.33463,4.10375 l -0.15499,1.76776 -2.27285,0.16111 c -1.25006,0.0886 -4.91502,0.22933 -8.14435,0.31273 l -5.871512,0.15163 z"
       id="path912"
       inkscape:connector-curvature="0"
       transform="scale(0.26458333)" />
    <path
       style="fill:#d40000;stroke:none;stroke-width:4.7733283;stroke-miterlimit:4;stroke-dasharray:none"
       d="m 96.274025,315.9771 c -0.08495,-1.82864 -0.181307,-5.58751 -0.214132,-8.35305 l -0.05968,-5.02826 12.226197,0.16604 c 6.7244,0.0913 12.27403,0.21388 12.33251,0.27236 0.10524,0.10524 -0.86719,12.89785 -1.10066,14.47948 -0.11729,0.79457 -0.15965,0.82075 -1.32796,0.82075 -1.31841,0 -16.98406,0.67301 -19.89565,0.85473 l -1.806174,0.11273 z m 13.934845,0.62076 c 3.64788,-0.11349 6.67428,-0.25217 6.72532,-0.30818 0.051,-0.056 0.22479,-2.03375 0.3861,-4.39498 0.16131,-2.36124 0.35821,-4.77613 0.43756,-5.36644 l 0.14426,-1.07329 h -9.87766 -9.877663 v 5.74926 5.74925 l 2.714783,-0.0746 c 1.49313,-0.0411 5.69942,-0.16749 9.3473,-0.28098 z"
       id="path916"
       inkscape:connector-curvature="0"
       transform="scale(0.26458333)" />
    <path
       style="fill:#d40000;stroke:none;stroke-width:4.7733283;stroke-miterlimit:4;stroke-dasharray:none"
       d="m 57.361879,318.77342 c -6.111423,-0.27622 -11.137612,-0.52341 -11.169308,-0.54929 -0.104219,-0.0851 -1.33884,-15.11867 -1.248989,-15.20852 0.04826,-0.0483 5.603427,-0.16254 12.344819,-0.25395 l 12.257075,-0.16621 -0.105168,7.55381 c -0.113048,8.11975 -0.192195,9.21412 -0.662522,9.16085 -0.167326,-0.019 -5.304484,-0.26046 -11.415907,-0.53669 z m 9.975256,-7.51007 v -5.80838 h -9.680628 c -5.324346,0 -9.728337,0.0477 -9.786646,0.10602 -0.05831,0.0583 0.0574,2.49482 0.257133,5.41447 l 0.363151,5.30845 1.531678,0.13704 c 0.842423,0.0754 4.940943,0.23328 9.107823,0.35093 4.166879,0.11764 7.718196,0.23323 7.891816,0.25687 0.244634,0.0333 0.315673,-1.26414 0.315673,-5.7654 z"
       id="path918"
       inkscape:connector-curvature="0"
       transform="scale(0.26458333)" />
    <path
       style="fill:#0000ff;stroke:none;stroke-width:4.7733283;stroke-miterlimit:4;stroke-dasharray:none"
       d="m 45.009873,286.32521 c -0.08156,-0.52086 -0.54516,-4.18582 -1.03021,-8.14436 -0.48505,-3.95853 -0.941371,-7.54816 -1.014047,-7.97696 l -0.132137,-0.77962 2.259123,-0.27816 c 2.507971,-0.30879 3.043059,-0.54706 5.1075,-2.27433 2.981572,-2.49461 7.691254,-4.66652 11.025802,-5.08464 3.822206,-0.47926 9.352462,-2.69346 11.542834,-4.6215 0.623913,-0.54919 1.134389,-1.20083 1.134389,-1.44809 0,-1.75846 4.807591,-3.79189 8.965103,-3.79189 2.844989,0 6.585627,1.09628 7.875571,2.30812 0.307041,0.28845 0.62831,0.8434 0.713928,1.23322 0.487265,2.21851 7.345526,5.63012 12.674961,6.30511 1.08298,0.13716 2.3668,0.37569 2.85293,0.53007 1.76978,0.562 6.82195,3.33717 8.25384,4.53386 2.1118,1.76492 2.63524,2.00022 5.13403,2.30788 2.22002,0.27334 2.2402,0.28218 2.12546,0.93151 -0.1182,0.66892 -2.12881,16.7668 -2.12881,17.04424 0,0.0839 -16.92269,0.15256 -37.605981,0.15256 H 45.158174 Z"
       id="path922"
       inkscape:connector-curvature="0"
       transform="scale(0.26458333)" />
  </g>
</svg>
